<mxfile host="app.diagrams.net" agent="Mozilla/5.0 (X11; Linux x86_64; rv:136.0) Gecko/20100101 Firefox/136.0" version="26.1.3">
  <diagram name="Page-1" id="K30SVkKJbRYKwgtJ1-Rf">
    <mxGraphModel dx="4822" dy="4043" grid="1" gridSize="10" guides="1" tooltips="1" connect="1" arrows="1" fold="1" page="1" pageScale="1" pageWidth="850" pageHeight="1100" math="0" shadow="0">
      <root>
        <mxCell id="0" />
        <mxCell id="1" parent="0" />
        <mxCell id="Rgu-pnZhENHffydv-r2O-139" value="&amp;nbsp;" style="text;whiteSpace=wrap;html=1;" vertex="1" parent="1">
          <mxGeometry x="-2820" y="-1570" width="40" height="40" as="geometry" />
        </mxCell>
        <mxCell id="Rgu-pnZhENHffydv-r2O-149" value="&lt;font style=&quot;font-size: 24px;&quot;&gt;Persona&lt;/font&gt;" style="rounded=0;whiteSpace=wrap;html=1;" vertex="1" parent="1">
          <mxGeometry x="-1610" y="-2130" width="130" height="60" as="geometry" />
        </mxCell>
        <mxCell id="Rgu-pnZhENHffydv-r2O-152" value="&lt;font style=&quot;font-size: 24px;&quot;&gt;Casillero&lt;/font&gt;" style="rounded=0;whiteSpace=wrap;html=1;" vertex="1" parent="1">
          <mxGeometry x="-2280" y="-1940" width="140" height="60" as="geometry" />
        </mxCell>
        <mxCell id="Rgu-pnZhENHffydv-r2O-153" value="&lt;font style=&quot;font-size: 24px;&quot;&gt;Asistente&lt;/font&gt;" style="rounded=0;whiteSpace=wrap;html=1;" vertex="1" parent="1">
          <mxGeometry x="-1460" y="-1940" width="120" height="60" as="geometry" />
        </mxCell>
        <mxCell id="Rgu-pnZhENHffydv-r2O-154" value="&lt;font style=&quot;font-size: 24px;&quot;&gt;Socio&lt;/font&gt;" style="rounded=0;whiteSpace=wrap;html=1;" vertex="1" parent="1">
          <mxGeometry x="-1760" y="-1940" width="120" height="60" as="geometry" />
        </mxCell>
        <mxCell id="Rgu-pnZhENHffydv-r2O-155" value="&lt;font style=&quot;font-size: 24px;&quot;&gt;Jugador&lt;/font&gt;" style="rounded=0;whiteSpace=wrap;html=1;" vertex="1" parent="1">
          <mxGeometry x="-2020" y="-1520" width="130" height="60" as="geometry" />
        </mxCell>
        <mxCell id="Rgu-pnZhENHffydv-r2O-156" value="&lt;font style=&quot;font-size: 24px;&quot;&gt;Actividad&lt;/font&gt;" style="rounded=0;whiteSpace=wrap;html=1;" vertex="1" parent="1">
          <mxGeometry x="-1600" y="-1710" width="150" height="60" as="geometry" />
        </mxCell>
        <mxCell id="Rgu-pnZhENHffydv-r2O-157" value="&lt;font style=&quot;font-size: 24px;&quot;&gt;Casillero Jockey&lt;/font&gt;" style="rounded=0;whiteSpace=wrap;html=1;" vertex="1" parent="1">
          <mxGeometry x="-2270.45" y="-1760" width="120" height="60" as="geometry" />
        </mxCell>
        <mxCell id="Rgu-pnZhENHffydv-r2O-158" value="" style="endArrow=classic;html=1;rounded=0;exitX=0.5;exitY=0;exitDx=0;exitDy=0;entryX=0.5;entryY=1;entryDx=0;entryDy=0;" edge="1" parent="1" source="Rgu-pnZhENHffydv-r2O-154" target="Rgu-pnZhENHffydv-r2O-149">
          <mxGeometry width="50" height="50" relative="1" as="geometry">
            <mxPoint x="-1690" y="-1950" as="sourcePoint" />
            <mxPoint x="-1640" y="-2000" as="targetPoint" />
            <Array as="points">
              <mxPoint x="-1700" y="-2000" />
              <mxPoint x="-1545" y="-2000" />
            </Array>
          </mxGeometry>
        </mxCell>
        <mxCell id="Rgu-pnZhENHffydv-r2O-159" value="" style="endArrow=classic;html=1;rounded=0;exitX=0.5;exitY=0;exitDx=0;exitDy=0;entryX=0.5;entryY=1;entryDx=0;entryDy=0;" edge="1" parent="1" source="Rgu-pnZhENHffydv-r2O-153" target="Rgu-pnZhENHffydv-r2O-149">
          <mxGeometry width="50" height="50" relative="1" as="geometry">
            <mxPoint x="-1510" y="-1960" as="sourcePoint" />
            <mxPoint x="-1360" y="-2090" as="targetPoint" />
            <Array as="points">
              <mxPoint x="-1400" y="-2000" />
              <mxPoint x="-1545" y="-2000" />
            </Array>
          </mxGeometry>
        </mxCell>
        <mxCell id="Rgu-pnZhENHffydv-r2O-380" value="T,E" style="edgeLabel;html=1;align=center;verticalAlign=middle;resizable=0;points=[];" vertex="1" connectable="0" parent="Rgu-pnZhENHffydv-r2O-159">
          <mxGeometry x="0.8841" y="-3" relative="1" as="geometry">
            <mxPoint x="12" as="offset" />
          </mxGeometry>
        </mxCell>
        <mxCell id="Rgu-pnZhENHffydv-r2O-160" value="tiene_relacion" style="rhombus;whiteSpace=wrap;html=1;" vertex="1" parent="1">
          <mxGeometry x="-1595" y="-1955" width="90" height="90" as="geometry" />
        </mxCell>
        <mxCell id="Rgu-pnZhENHffydv-r2O-161" value="Inscripto" style="rhombus;whiteSpace=wrap;html=1;" vertex="1" parent="1">
          <mxGeometry x="-1770" y="-1810" width="80" height="80" as="geometry" />
        </mxCell>
        <mxCell id="Rgu-pnZhENHffydv-r2O-162" value="cas_jugador" style="rhombus;whiteSpace=wrap;html=1;" vertex="1" parent="1">
          <mxGeometry x="-2280" y="-1530" width="80" height="80" as="geometry" />
        </mxCell>
        <mxCell id="Rgu-pnZhENHffydv-r2O-163" value="" style="endArrow=none;html=1;rounded=0;exitX=1;exitY=0.5;exitDx=0;exitDy=0;entryX=0;entryY=0.5;entryDx=0;entryDy=0;" edge="1" parent="1" source="Rgu-pnZhENHffydv-r2O-162" target="Rgu-pnZhENHffydv-r2O-155">
          <mxGeometry width="50" height="50" relative="1" as="geometry">
            <mxPoint x="-1940" y="-1690" as="sourcePoint" />
            <mxPoint x="-1890" y="-1740" as="targetPoint" />
          </mxGeometry>
        </mxCell>
        <mxCell id="Rgu-pnZhENHffydv-r2O-231" value="&lt;div&gt;(0,1)&lt;/div&gt;" style="edgeLabel;html=1;align=center;verticalAlign=middle;resizable=0;points=[];" vertex="1" connectable="0" parent="Rgu-pnZhENHffydv-r2O-163">
          <mxGeometry x="0.7976" y="-1" relative="1" as="geometry">
            <mxPoint x="-6" y="-11" as="offset" />
          </mxGeometry>
        </mxCell>
        <mxCell id="Rgu-pnZhENHffydv-r2O-164" value="" style="endArrow=none;html=1;rounded=0;exitX=0.5;exitY=0;exitDx=0;exitDy=0;entryX=0.25;entryY=1;entryDx=0;entryDy=0;" edge="1" parent="1" source="Rgu-pnZhENHffydv-r2O-162" target="Rgu-pnZhENHffydv-r2O-157">
          <mxGeometry width="50" height="50" relative="1" as="geometry">
            <mxPoint x="-1940" y="-1690" as="sourcePoint" />
            <mxPoint x="-1890" y="-1740" as="targetPoint" />
            <Array as="points">
              <mxPoint x="-2240" y="-1630" />
            </Array>
          </mxGeometry>
        </mxCell>
        <mxCell id="Rgu-pnZhENHffydv-r2O-230" value="&lt;div&gt;(0,1)&lt;/div&gt;" style="edgeLabel;html=1;align=center;verticalAlign=middle;resizable=0;points=[];" vertex="1" connectable="0" parent="Rgu-pnZhENHffydv-r2O-164">
          <mxGeometry x="0.5176" y="-2" relative="1" as="geometry">
            <mxPoint x="-42" y="-21" as="offset" />
          </mxGeometry>
        </mxCell>
        <mxCell id="Rgu-pnZhENHffydv-r2O-166" value="Casillero_socio" style="rhombus;whiteSpace=wrap;html=1;" vertex="1" parent="1">
          <mxGeometry x="-1990" y="-1960" width="100" height="100" as="geometry" />
        </mxCell>
        <mxCell id="Rgu-pnZhENHffydv-r2O-167" value="" style="endArrow=none;html=1;rounded=0;exitX=1;exitY=0.5;exitDx=0;exitDy=0;entryX=0;entryY=0.5;entryDx=0;entryDy=0;" edge="1" parent="1" source="Rgu-pnZhENHffydv-r2O-152" target="Rgu-pnZhENHffydv-r2O-166">
          <mxGeometry width="50" height="50" relative="1" as="geometry">
            <mxPoint x="-2100" y="-1910" as="sourcePoint" />
            <mxPoint x="-2050" y="-1960" as="targetPoint" />
          </mxGeometry>
        </mxCell>
        <mxCell id="Rgu-pnZhENHffydv-r2O-229" value="&lt;div&gt;(0,n)&lt;/div&gt;" style="edgeLabel;html=1;align=center;verticalAlign=middle;resizable=0;points=[];" vertex="1" connectable="0" parent="Rgu-pnZhENHffydv-r2O-167">
          <mxGeometry x="0.4667" y="-3" relative="1" as="geometry">
            <mxPoint x="-80" y="-18" as="offset" />
          </mxGeometry>
        </mxCell>
        <mxCell id="Rgu-pnZhENHffydv-r2O-168" value="" style="endArrow=none;html=1;rounded=0;exitX=1;exitY=0.5;exitDx=0;exitDy=0;entryX=0;entryY=0.5;entryDx=0;entryDy=0;" edge="1" parent="1" source="Rgu-pnZhENHffydv-r2O-166" target="Rgu-pnZhENHffydv-r2O-154">
          <mxGeometry width="50" height="50" relative="1" as="geometry">
            <mxPoint x="-1940" y="-1760" as="sourcePoint" />
            <mxPoint x="-1890" y="-1810" as="targetPoint" />
          </mxGeometry>
        </mxCell>
        <mxCell id="Rgu-pnZhENHffydv-r2O-228" value="&lt;div&gt;(0,n)&lt;/div&gt;" style="edgeLabel;html=1;align=center;verticalAlign=middle;resizable=0;points=[];" vertex="1" connectable="0" parent="Rgu-pnZhENHffydv-r2O-168">
          <mxGeometry x="0.5" relative="1" as="geometry">
            <mxPoint x="3" y="-15" as="offset" />
          </mxGeometry>
        </mxCell>
        <mxCell id="Rgu-pnZhENHffydv-r2O-169" value="" style="endArrow=none;html=1;rounded=0;entryX=0.25;entryY=1;entryDx=0;entryDy=0;exitX=0.5;exitY=0;exitDx=0;exitDy=0;" edge="1" parent="1" source="Rgu-pnZhENHffydv-r2O-161" target="Rgu-pnZhENHffydv-r2O-154">
          <mxGeometry width="50" height="50" relative="1" as="geometry">
            <mxPoint x="-1940" y="-1760" as="sourcePoint" />
            <mxPoint x="-1890" y="-1810" as="targetPoint" />
          </mxGeometry>
        </mxCell>
        <mxCell id="Rgu-pnZhENHffydv-r2O-226" value="&lt;div&gt;(0,n)&lt;/div&gt;" style="edgeLabel;html=1;align=center;verticalAlign=middle;resizable=0;points=[];" vertex="1" connectable="0" parent="Rgu-pnZhENHffydv-r2O-169">
          <mxGeometry x="0.4952" y="1" relative="1" as="geometry">
            <mxPoint x="-19" y="3" as="offset" />
          </mxGeometry>
        </mxCell>
        <mxCell id="Rgu-pnZhENHffydv-r2O-170" value="" style="endArrow=none;html=1;rounded=0;entryX=0.5;entryY=1;entryDx=0;entryDy=0;exitX=0;exitY=0.5;exitDx=0;exitDy=0;" edge="1" parent="1" source="Rgu-pnZhENHffydv-r2O-156" target="Rgu-pnZhENHffydv-r2O-161">
          <mxGeometry width="50" height="50" relative="1" as="geometry">
            <mxPoint x="-1940" y="-1760" as="sourcePoint" />
            <mxPoint x="-1890" y="-1810" as="targetPoint" />
            <Array as="points">
              <mxPoint x="-1730" y="-1680" />
            </Array>
          </mxGeometry>
        </mxCell>
        <mxCell id="Rgu-pnZhENHffydv-r2O-227" value="&lt;div&gt;(0,n)&lt;/div&gt;" style="edgeLabel;html=1;align=center;verticalAlign=middle;resizable=0;points=[];" vertex="1" connectable="0" parent="Rgu-pnZhENHffydv-r2O-170">
          <mxGeometry x="-0.713" y="-2" relative="1" as="geometry">
            <mxPoint y="-8" as="offset" />
          </mxGeometry>
        </mxCell>
        <mxCell id="Rgu-pnZhENHffydv-r2O-171" value="" style="endArrow=none;html=1;rounded=0;entryX=0;entryY=0.5;entryDx=0;entryDy=0;exitX=1;exitY=0.5;exitDx=0;exitDy=0;" edge="1" parent="1" source="Rgu-pnZhENHffydv-r2O-154" target="Rgu-pnZhENHffydv-r2O-160">
          <mxGeometry width="50" height="50" relative="1" as="geometry">
            <mxPoint x="-1940" y="-1690" as="sourcePoint" />
            <mxPoint x="-1890" y="-1740" as="targetPoint" />
          </mxGeometry>
        </mxCell>
        <mxCell id="Rgu-pnZhENHffydv-r2O-224" value="(0,n)" style="edgeLabel;html=1;align=center;verticalAlign=middle;resizable=0;points=[];" vertex="1" connectable="0" parent="Rgu-pnZhENHffydv-r2O-171">
          <mxGeometry x="0.1556" relative="1" as="geometry">
            <mxPoint x="-6" y="-15" as="offset" />
          </mxGeometry>
        </mxCell>
        <mxCell id="Rgu-pnZhENHffydv-r2O-173" value="" style="endArrow=none;html=1;rounded=0;entryX=0;entryY=0.5;entryDx=0;entryDy=0;exitX=1;exitY=0.5;exitDx=0;exitDy=0;" edge="1" parent="1" source="Rgu-pnZhENHffydv-r2O-160" target="Rgu-pnZhENHffydv-r2O-153">
          <mxGeometry width="50" height="50" relative="1" as="geometry">
            <mxPoint x="-1940" y="-1690" as="sourcePoint" />
            <mxPoint x="-1890" y="-1740" as="targetPoint" />
          </mxGeometry>
        </mxCell>
        <mxCell id="Rgu-pnZhENHffydv-r2O-225" value="(0,n)" style="edgeLabel;html=1;align=center;verticalAlign=middle;resizable=0;points=[];" vertex="1" connectable="0" parent="Rgu-pnZhENHffydv-r2O-173">
          <mxGeometry x="0.3079" relative="1" as="geometry">
            <mxPoint x="-5" y="-15" as="offset" />
          </mxGeometry>
        </mxCell>
        <mxCell id="Rgu-pnZhENHffydv-r2O-174" value="" style="endArrow=classic;html=1;rounded=0;entryX=0.5;entryY=1;entryDx=0;entryDy=0;exitX=0.5;exitY=0;exitDx=0;exitDy=0;" edge="1" parent="1" source="Rgu-pnZhENHffydv-r2O-157" target="Rgu-pnZhENHffydv-r2O-152">
          <mxGeometry width="50" height="50" relative="1" as="geometry">
            <mxPoint x="-1940" y="-1660" as="sourcePoint" />
            <mxPoint x="-1890" y="-1710" as="targetPoint" />
          </mxGeometry>
        </mxCell>
        <mxCell id="Rgu-pnZhENHffydv-r2O-381" value="(P,E)" style="edgeLabel;html=1;align=center;verticalAlign=middle;resizable=0;points=[];" vertex="1" connectable="0" parent="Rgu-pnZhENHffydv-r2O-174">
          <mxGeometry x="0.3833" y="1" relative="1" as="geometry">
            <mxPoint x="24" y="-22" as="offset" />
          </mxGeometry>
        </mxCell>
        <mxCell id="Rgu-pnZhENHffydv-r2O-183" value="" style="group;rotation=90;" vertex="1" connectable="0" parent="1">
          <mxGeometry x="-1317" y="-1940" width="14.285714285714295" height="60" as="geometry" />
        </mxCell>
        <mxCell id="Rgu-pnZhENHffydv-r2O-184" value="" style="ellipse;whiteSpace=wrap;html=1;aspect=fixed;rotation=90;" vertex="1" parent="Rgu-pnZhENHffydv-r2O-183">
          <mxGeometry x="24" y="23" width="13.066202090592336" height="13.066202090592336" as="geometry" />
        </mxCell>
        <mxCell id="Rgu-pnZhENHffydv-r2O-185" style="edgeStyle=orthogonalEdgeStyle;rounded=0;orthogonalLoop=1;jettySize=auto;html=1;endArrow=none;startFill=0;" edge="1" parent="Rgu-pnZhENHffydv-r2O-183">
          <mxGeometry relative="1" as="geometry">
            <mxPoint x="-23" y="30" as="targetPoint" />
            <mxPoint x="24" y="30" as="sourcePoint" />
          </mxGeometry>
        </mxCell>
        <mxCell id="Rgu-pnZhENHffydv-r2O-186" value="" style="group;rotation=-180;" vertex="1" connectable="0" parent="1">
          <mxGeometry x="-1600" y="-1840" width="50" height="60" as="geometry" />
        </mxCell>
        <mxCell id="Rgu-pnZhENHffydv-r2O-187" value="" style="group;rotation=-180;" vertex="1" connectable="0" parent="Rgu-pnZhENHffydv-r2O-186">
          <mxGeometry x="-114" y="-40" width="14.285714285714295" height="60" as="geometry" />
        </mxCell>
        <mxCell id="Rgu-pnZhENHffydv-r2O-188" value="" style="ellipse;whiteSpace=wrap;html=1;aspect=fixed;fillColor=light-dark(#FFFFFF,#FFFFFF);rotation=-180;" vertex="1" parent="Rgu-pnZhENHffydv-r2O-187">
          <mxGeometry x="1" y="47" width="13.066202090592336" height="13.066202090592336" as="geometry" />
        </mxCell>
        <mxCell id="Rgu-pnZhENHffydv-r2O-189" style="edgeStyle=orthogonalEdgeStyle;rounded=0;orthogonalLoop=1;jettySize=auto;html=1;endArrow=none;startFill=0;" edge="1" parent="Rgu-pnZhENHffydv-r2O-187">
          <mxGeometry relative="1" as="geometry">
            <mxPoint x="7" as="targetPoint" />
            <mxPoint x="7" y="47" as="sourcePoint" />
          </mxGeometry>
        </mxCell>
        <mxCell id="Rgu-pnZhENHffydv-r2O-190" value="" style="group;rotation=-180;" vertex="1" connectable="0" parent="Rgu-pnZhENHffydv-r2O-186">
          <mxGeometry x="-90" y="-40" width="14.285714285714295" height="60" as="geometry" />
        </mxCell>
        <mxCell id="Rgu-pnZhENHffydv-r2O-191" value="" style="ellipse;whiteSpace=wrap;html=1;aspect=fixed;rotation=-180;" vertex="1" parent="Rgu-pnZhENHffydv-r2O-190">
          <mxGeometry x="1" y="47" width="13.066202090592336" height="13.066202090592336" as="geometry" />
        </mxCell>
        <mxCell id="Rgu-pnZhENHffydv-r2O-192" style="edgeStyle=orthogonalEdgeStyle;rounded=0;orthogonalLoop=1;jettySize=auto;html=1;endArrow=none;startFill=0;" edge="1" parent="Rgu-pnZhENHffydv-r2O-190">
          <mxGeometry relative="1" as="geometry">
            <mxPoint x="7" as="targetPoint" />
            <mxPoint x="7" y="47" as="sourcePoint" />
          </mxGeometry>
        </mxCell>
        <mxCell id="Rgu-pnZhENHffydv-r2O-143" value="" style="group" vertex="1" connectable="0" parent="1">
          <mxGeometry x="-1610" y="-2190" width="14.285714285714295" height="60" as="geometry" />
        </mxCell>
        <mxCell id="Rgu-pnZhENHffydv-r2O-137" value="" style="ellipse;whiteSpace=wrap;html=1;aspect=fixed;fillColor=light-dark(#FFFFFF,#FFFFFF);" vertex="1" parent="Rgu-pnZhENHffydv-r2O-143">
          <mxGeometry width="13.066202090592336" height="13.066202090592336" as="geometry" />
        </mxCell>
        <mxCell id="Rgu-pnZhENHffydv-r2O-138" style="edgeStyle=orthogonalEdgeStyle;rounded=0;orthogonalLoop=1;jettySize=auto;html=1;endArrow=none;startFill=0;" edge="1" parent="Rgu-pnZhENHffydv-r2O-143">
          <mxGeometry relative="1" as="geometry">
            <mxPoint x="7.142857142857137" y="60" as="targetPoint" />
            <mxPoint x="7.142857142857137" y="13.222996515679442" as="sourcePoint" />
          </mxGeometry>
        </mxCell>
        <mxCell id="Rgu-pnZhENHffydv-r2O-144" value="" style="group" vertex="1" connectable="0" parent="1">
          <mxGeometry x="-1582.1457142857143" y="-2190" width="14.285714285714295" height="60" as="geometry" />
        </mxCell>
        <mxCell id="Rgu-pnZhENHffydv-r2O-135" value="" style="ellipse;whiteSpace=wrap;html=1;aspect=fixed;" vertex="1" parent="Rgu-pnZhENHffydv-r2O-144">
          <mxGeometry width="13.066202090592336" height="13.066202090592336" as="geometry" />
        </mxCell>
        <mxCell id="Rgu-pnZhENHffydv-r2O-136" style="edgeStyle=orthogonalEdgeStyle;rounded=0;orthogonalLoop=1;jettySize=auto;html=1;endArrow=none;startFill=0;" edge="1" parent="Rgu-pnZhENHffydv-r2O-144">
          <mxGeometry relative="1" as="geometry">
            <mxPoint x="7.142857142857137" y="60" as="targetPoint" />
            <mxPoint x="7.142857142857137" y="13.222996515679442" as="sourcePoint" />
          </mxGeometry>
        </mxCell>
        <mxCell id="Rgu-pnZhENHffydv-r2O-193" value="" style="group" vertex="1" connectable="0" parent="1">
          <mxGeometry x="-1564.2857142857144" y="-2190" width="14.285714285714295" height="60" as="geometry" />
        </mxCell>
        <mxCell id="Rgu-pnZhENHffydv-r2O-194" value="" style="ellipse;whiteSpace=wrap;html=1;aspect=fixed;" vertex="1" parent="Rgu-pnZhENHffydv-r2O-193">
          <mxGeometry width="13.066202090592336" height="13.066202090592336" as="geometry" />
        </mxCell>
        <mxCell id="Rgu-pnZhENHffydv-r2O-195" style="edgeStyle=orthogonalEdgeStyle;rounded=0;orthogonalLoop=1;jettySize=auto;html=1;endArrow=none;startFill=0;" edge="1" parent="Rgu-pnZhENHffydv-r2O-193">
          <mxGeometry relative="1" as="geometry">
            <mxPoint x="7.142857142857137" y="60" as="targetPoint" />
            <mxPoint x="7.142857142857137" y="13.222996515679442" as="sourcePoint" />
          </mxGeometry>
        </mxCell>
        <mxCell id="Rgu-pnZhENHffydv-r2O-202" value="" style="group" vertex="1" connectable="0" parent="1">
          <mxGeometry x="-1547.1457142857143" y="-2190" width="14.285714285714295" height="60" as="geometry" />
        </mxCell>
        <mxCell id="Rgu-pnZhENHffydv-r2O-203" value="" style="ellipse;whiteSpace=wrap;html=1;aspect=fixed;" vertex="1" parent="Rgu-pnZhENHffydv-r2O-202">
          <mxGeometry width="13.066202090592336" height="13.066202090592336" as="geometry" />
        </mxCell>
        <mxCell id="Rgu-pnZhENHffydv-r2O-204" style="edgeStyle=orthogonalEdgeStyle;rounded=0;orthogonalLoop=1;jettySize=auto;html=1;endArrow=none;startFill=0;" edge="1" parent="Rgu-pnZhENHffydv-r2O-202">
          <mxGeometry relative="1" as="geometry">
            <mxPoint x="7.142857142857137" y="60" as="targetPoint" />
            <mxPoint x="7.142857142857137" y="13.222996515679442" as="sourcePoint" />
          </mxGeometry>
        </mxCell>
        <mxCell id="Rgu-pnZhENHffydv-r2O-205" value="" style="group" vertex="1" connectable="0" parent="1">
          <mxGeometry x="-1529.9957142857143" y="-2190" width="14.285714285714295" height="60" as="geometry" />
        </mxCell>
        <mxCell id="Rgu-pnZhENHffydv-r2O-206" value="" style="ellipse;whiteSpace=wrap;html=1;aspect=fixed;" vertex="1" parent="Rgu-pnZhENHffydv-r2O-205">
          <mxGeometry width="13.066202090592336" height="13.066202090592336" as="geometry" />
        </mxCell>
        <mxCell id="Rgu-pnZhENHffydv-r2O-207" style="edgeStyle=orthogonalEdgeStyle;rounded=0;orthogonalLoop=1;jettySize=auto;html=1;endArrow=none;startFill=0;" edge="1" parent="Rgu-pnZhENHffydv-r2O-205">
          <mxGeometry relative="1" as="geometry">
            <mxPoint x="7.142857142857137" y="60" as="targetPoint" />
            <mxPoint x="7.142857142857137" y="13.222996515679442" as="sourcePoint" />
          </mxGeometry>
        </mxCell>
        <mxCell id="Rgu-pnZhENHffydv-r2O-208" value="" style="group" vertex="1" connectable="0" parent="1">
          <mxGeometry x="-1513.9957142857143" y="-2190" width="14.285714285714295" height="60" as="geometry" />
        </mxCell>
        <mxCell id="Rgu-pnZhENHffydv-r2O-209" value="" style="ellipse;whiteSpace=wrap;html=1;aspect=fixed;" vertex="1" parent="Rgu-pnZhENHffydv-r2O-208">
          <mxGeometry width="13.066202090592336" height="13.066202090592336" as="geometry" />
        </mxCell>
        <mxCell id="Rgu-pnZhENHffydv-r2O-210" style="edgeStyle=orthogonalEdgeStyle;rounded=0;orthogonalLoop=1;jettySize=auto;html=1;endArrow=none;startFill=0;" edge="1" parent="Rgu-pnZhENHffydv-r2O-208">
          <mxGeometry relative="1" as="geometry">
            <mxPoint x="7.142857142857137" y="60" as="targetPoint" />
            <mxPoint x="7.142857142857137" y="13.222996515679442" as="sourcePoint" />
          </mxGeometry>
        </mxCell>
        <mxCell id="Rgu-pnZhENHffydv-r2O-211" value="" style="group" vertex="1" connectable="0" parent="1">
          <mxGeometry x="-1496.8457142857142" y="-2190" width="14.285714285714295" height="60" as="geometry" />
        </mxCell>
        <mxCell id="Rgu-pnZhENHffydv-r2O-212" value="" style="ellipse;whiteSpace=wrap;html=1;aspect=fixed;" vertex="1" parent="Rgu-pnZhENHffydv-r2O-211">
          <mxGeometry width="13.066202090592336" height="13.066202090592336" as="geometry" />
        </mxCell>
        <mxCell id="Rgu-pnZhENHffydv-r2O-213" style="edgeStyle=orthogonalEdgeStyle;rounded=0;orthogonalLoop=1;jettySize=auto;html=1;endArrow=none;startFill=0;" edge="1" parent="Rgu-pnZhENHffydv-r2O-211">
          <mxGeometry relative="1" as="geometry">
            <mxPoint x="7.142857142857137" y="60" as="targetPoint" />
            <mxPoint x="7.142857142857137" y="13.222996515679442" as="sourcePoint" />
          </mxGeometry>
        </mxCell>
        <mxCell id="Rgu-pnZhENHffydv-r2O-214" value="DNI" style="text;html=1;align=center;verticalAlign=middle;whiteSpace=wrap;rounded=0;rotation=-50;" vertex="1" parent="1">
          <mxGeometry x="-1607" y="-2217" width="40" height="10" as="geometry" />
        </mxCell>
        <mxCell id="Rgu-pnZhENHffydv-r2O-215" value="nombre" style="text;html=1;align=center;verticalAlign=middle;whiteSpace=wrap;rounded=0;rotation=-50;" vertex="1" parent="1">
          <mxGeometry x="-1579.15" y="-2217" width="40" height="10" as="geometry" />
        </mxCell>
        <mxCell id="Rgu-pnZhENHffydv-r2O-216" value="apellido" style="text;html=1;align=center;verticalAlign=middle;whiteSpace=wrap;rounded=0;rotation=-50;" vertex="1" parent="1">
          <mxGeometry x="-1561.2900000000002" y="-2217" width="40" height="10" as="geometry" />
        </mxCell>
        <mxCell id="Rgu-pnZhENHffydv-r2O-217" value="nacimiento" style="text;html=1;align=center;verticalAlign=middle;whiteSpace=wrap;rounded=0;rotation=-50;" vertex="1" parent="1">
          <mxGeometry x="-1547.13" y="-2223.39" width="56.68" height="10" as="geometry" />
        </mxCell>
        <mxCell id="Rgu-pnZhENHffydv-r2O-218" value="estado civil" style="text;html=1;align=center;verticalAlign=middle;whiteSpace=wrap;rounded=0;rotation=-50;" vertex="1" parent="1">
          <mxGeometry x="-1536.06" y="-2222.46" width="68.71" height="10" as="geometry" />
        </mxCell>
        <mxCell id="Rgu-pnZhENHffydv-r2O-219" value="direccion" style="text;html=1;align=center;verticalAlign=middle;whiteSpace=wrap;rounded=0;rotation=-50;" vertex="1" parent="1">
          <mxGeometry x="-1512.96" y="-2221.21" width="51" height="10" as="geometry" />
        </mxCell>
        <mxCell id="Rgu-pnZhENHffydv-r2O-220" value="telefonos(0..N)" style="text;html=1;align=center;verticalAlign=middle;whiteSpace=wrap;rounded=0;rotation=-50;" vertex="1" parent="1">
          <mxGeometry x="-1499.06" y="-2229.69" width="73.14" height="10" as="geometry" />
        </mxCell>
        <mxCell id="Rgu-pnZhENHffydv-r2O-221" value="Alta" style="text;html=1;align=center;verticalAlign=middle;whiteSpace=wrap;rounded=0;rotation=45;" vertex="1" parent="1">
          <mxGeometry x="-1720" y="-1810" width="50" height="20" as="geometry" />
        </mxCell>
        <mxCell id="Rgu-pnZhENHffydv-r2O-222" value="id" style="text;html=1;align=center;verticalAlign=middle;whiteSpace=wrap;rounded=0;rotation=45;" vertex="1" parent="1">
          <mxGeometry x="-1690" y="-1810" width="50" height="20" as="geometry" />
        </mxCell>
        <mxCell id="Rgu-pnZhENHffydv-r2O-223" value="ult_acceso" style="text;html=1;align=center;verticalAlign=middle;whiteSpace=wrap;rounded=0;" vertex="1" parent="1">
          <mxGeometry x="-1280" y="-1925" width="60" height="30" as="geometry" />
        </mxCell>
        <mxCell id="Rgu-pnZhENHffydv-r2O-232" value="" style="group" vertex="1" connectable="0" parent="1">
          <mxGeometry x="-2270" y="-2000" width="14.285714285714295" height="60" as="geometry" />
        </mxCell>
        <mxCell id="Rgu-pnZhENHffydv-r2O-233" value="" style="ellipse;whiteSpace=wrap;html=1;aspect=fixed;fillColor=light-dark(#FFFFFF,#FFFFFF);" vertex="1" parent="Rgu-pnZhENHffydv-r2O-232">
          <mxGeometry width="13.066202090592336" height="13.066202090592336" as="geometry" />
        </mxCell>
        <mxCell id="Rgu-pnZhENHffydv-r2O-234" style="edgeStyle=orthogonalEdgeStyle;rounded=0;orthogonalLoop=1;jettySize=auto;html=1;endArrow=none;startFill=0;" edge="1" parent="Rgu-pnZhENHffydv-r2O-232">
          <mxGeometry relative="1" as="geometry">
            <mxPoint x="7.142857142857137" y="60" as="targetPoint" />
            <mxPoint x="7.142857142857137" y="13.222996515679442" as="sourcePoint" />
          </mxGeometry>
        </mxCell>
        <mxCell id="Rgu-pnZhENHffydv-r2O-235" value="" style="group" vertex="1" connectable="0" parent="1">
          <mxGeometry x="-2242.1457142857143" y="-2000" width="14.285714285714295" height="60" as="geometry" />
        </mxCell>
        <mxCell id="Rgu-pnZhENHffydv-r2O-236" value="" style="ellipse;whiteSpace=wrap;html=1;aspect=fixed;" vertex="1" parent="Rgu-pnZhENHffydv-r2O-235">
          <mxGeometry width="13.066202090592336" height="13.066202090592336" as="geometry" />
        </mxCell>
        <mxCell id="Rgu-pnZhENHffydv-r2O-237" style="edgeStyle=orthogonalEdgeStyle;rounded=0;orthogonalLoop=1;jettySize=auto;html=1;endArrow=none;startFill=0;" edge="1" parent="Rgu-pnZhENHffydv-r2O-235">
          <mxGeometry relative="1" as="geometry">
            <mxPoint x="7.142857142857137" y="60" as="targetPoint" />
            <mxPoint x="7.142857142857137" y="13.222996515679442" as="sourcePoint" />
          </mxGeometry>
        </mxCell>
        <mxCell id="Rgu-pnZhENHffydv-r2O-238" value="" style="group" vertex="1" connectable="0" parent="1">
          <mxGeometry x="-2224.2857142857147" y="-2000" width="14.285714285714295" height="60" as="geometry" />
        </mxCell>
        <mxCell id="Rgu-pnZhENHffydv-r2O-239" value="" style="ellipse;whiteSpace=wrap;html=1;aspect=fixed;" vertex="1" parent="Rgu-pnZhENHffydv-r2O-238">
          <mxGeometry width="13.066202090592336" height="13.066202090592336" as="geometry" />
        </mxCell>
        <mxCell id="Rgu-pnZhENHffydv-r2O-240" style="edgeStyle=orthogonalEdgeStyle;rounded=0;orthogonalLoop=1;jettySize=auto;html=1;endArrow=none;startFill=0;" edge="1" parent="Rgu-pnZhENHffydv-r2O-238">
          <mxGeometry relative="1" as="geometry">
            <mxPoint x="7.142857142857137" y="60" as="targetPoint" />
            <mxPoint x="7.142857142857137" y="13.222996515679442" as="sourcePoint" />
          </mxGeometry>
        </mxCell>
        <mxCell id="Rgu-pnZhENHffydv-r2O-253" value="Codigo" style="text;html=1;align=center;verticalAlign=middle;whiteSpace=wrap;rounded=0;rotation=-50;" vertex="1" parent="1">
          <mxGeometry x="-2267" y="-2027" width="40" height="10" as="geometry" />
        </mxCell>
        <mxCell id="Rgu-pnZhENHffydv-r2O-254" value="ubicacion" style="text;html=1;align=center;verticalAlign=middle;whiteSpace=wrap;rounded=0;rotation=-50;" vertex="1" parent="1">
          <mxGeometry x="-2240.78" y="-2030.5" width="49.15" height="10" as="geometry" />
        </mxCell>
        <mxCell id="Rgu-pnZhENHffydv-r2O-255" value="tamaño" style="text;html=1;align=center;verticalAlign=middle;whiteSpace=wrap;rounded=0;rotation=-50;" vertex="1" parent="1">
          <mxGeometry x="-2221.29" y="-2027" width="40" height="10" as="geometry" />
        </mxCell>
        <mxCell id="Rgu-pnZhENHffydv-r2O-277" value="" style="ellipse;whiteSpace=wrap;html=1;aspect=fixed;rotation=-180;container=0;" vertex="1" parent="1">
          <mxGeometry x="-2200" y="-1652.9981833332938" width="13.066202090592336" height="13.066202090592336" as="geometry" />
        </mxCell>
        <mxCell id="Rgu-pnZhENHffydv-r2O-278" style="edgeStyle=orthogonalEdgeStyle;rounded=0;orthogonalLoop=1;jettySize=auto;html=1;endArrow=none;startFill=0;" edge="1" parent="1">
          <mxGeometry relative="1" as="geometry">
            <mxPoint x="-2194" y="-1699.9981833332938" as="targetPoint" />
            <mxPoint x="-2194" y="-1652.9981833332938" as="sourcePoint" />
          </mxGeometry>
        </mxCell>
        <mxCell id="Rgu-pnZhENHffydv-r2O-287" value="Division" style="text;html=1;align=center;verticalAlign=middle;whiteSpace=wrap;rounded=0;rotation=53.3;container=0;" vertex="1" parent="1">
          <mxGeometry x="-2193.2799999999997" y="-1619.9981833332938" width="51" height="10" as="geometry" />
        </mxCell>
        <mxCell id="Rgu-pnZhENHffydv-r2O-310" value="" style="group;movable=1;resizable=1;rotatable=1;deletable=1;editable=1;locked=0;connectable=1;rotation=-180;" vertex="1" connectable="0" parent="1">
          <mxGeometry x="-2235.58" y="-1460" width="14.29" height="60" as="geometry" />
        </mxCell>
        <mxCell id="Rgu-pnZhENHffydv-r2O-311" value="" style="ellipse;whiteSpace=wrap;html=1;aspect=fixed;rotation=-180;" vertex="1" parent="Rgu-pnZhENHffydv-r2O-310">
          <mxGeometry x="1.0002999999999993" y="48.42857142857142" width="11.199601791936287" height="11.199601791936287" as="geometry" />
        </mxCell>
        <mxCell id="Rgu-pnZhENHffydv-r2O-312" style="edgeStyle=orthogonalEdgeStyle;rounded=0;orthogonalLoop=1;jettySize=auto;html=1;endArrow=none;startFill=0;" edge="1" parent="Rgu-pnZhENHffydv-r2O-310">
          <mxGeometry relative="1" as="geometry">
            <mxPoint x="6.579999999999927" y="-1" as="targetPoint" />
            <mxPoint x="7.002099999999995" y="48.42857142857142" as="sourcePoint" />
            <Array as="points">
              <mxPoint x="7.002099999999995" y="1.4285714285714295" />
              <mxPoint x="7.002099999999995" y="1.4285714285714295" />
            </Array>
          </mxGeometry>
        </mxCell>
        <mxCell id="Rgu-pnZhENHffydv-r2O-319" value="fin_uso(0,1)" style="text;html=1;align=center;verticalAlign=middle;whiteSpace=wrap;rounded=0;rotation=40;movable=1;resizable=1;rotatable=1;deletable=1;editable=1;locked=0;connectable=1;" vertex="1" parent="1">
          <mxGeometry x="-2223.59" y="-1380" width="73.14" height="10" as="geometry" />
        </mxCell>
        <mxCell id="Rgu-pnZhENHffydv-r2O-320" value="" style="group;movable=1;resizable=1;rotatable=1;deletable=1;editable=1;locked=0;connectable=1;rotation=-180;" vertex="1" connectable="0" parent="1">
          <mxGeometry x="-2260" y="-1460" width="14.29" height="60" as="geometry" />
        </mxCell>
        <mxCell id="Rgu-pnZhENHffydv-r2O-321" value="" style="ellipse;whiteSpace=wrap;html=1;aspect=fixed;rotation=-180;" vertex="1" parent="Rgu-pnZhENHffydv-r2O-320">
          <mxGeometry x="1.0002999999999993" y="48.42857142857142" width="11.199601791936287" height="11.199601791936287" as="geometry" />
        </mxCell>
        <mxCell id="Rgu-pnZhENHffydv-r2O-322" style="edgeStyle=orthogonalEdgeStyle;rounded=0;orthogonalLoop=1;jettySize=auto;html=1;endArrow=none;startFill=0;entryX=0.338;entryY=0.843;entryDx=0;entryDy=0;entryPerimeter=0;" edge="1" parent="Rgu-pnZhENHffydv-r2O-320" target="Rgu-pnZhENHffydv-r2O-162">
          <mxGeometry relative="1" as="geometry">
            <mxPoint x="6.579999999999927" y="-1" as="targetPoint" />
            <mxPoint x="7.002099999999995" y="48.42857142857142" as="sourcePoint" />
            <Array as="points" />
          </mxGeometry>
        </mxCell>
        <mxCell id="Rgu-pnZhENHffydv-r2O-323" value="comienzo_uso" style="text;html=1;align=center;verticalAlign=middle;whiteSpace=wrap;rounded=0;rotation=40;movable=1;resizable=1;rotatable=1;deletable=1;editable=1;locked=0;connectable=1;" vertex="1" parent="1">
          <mxGeometry x="-2264.31" y="-1368.15" width="110" height="10" as="geometry" />
        </mxCell>
        <mxCell id="Rgu-pnZhENHffydv-r2O-324" value="" style="group" vertex="1" connectable="0" parent="1">
          <mxGeometry x="-2020" y="-1580.31" width="14.285714285714295" height="60" as="geometry" />
        </mxCell>
        <mxCell id="Rgu-pnZhENHffydv-r2O-325" value="" style="ellipse;whiteSpace=wrap;html=1;aspect=fixed;fillColor=light-dark(#FFFFFF,#FFFFFF);" vertex="1" parent="Rgu-pnZhENHffydv-r2O-324">
          <mxGeometry width="13.066202090592336" height="13.066202090592336" as="geometry" />
        </mxCell>
        <mxCell id="Rgu-pnZhENHffydv-r2O-326" style="edgeStyle=orthogonalEdgeStyle;rounded=0;orthogonalLoop=1;jettySize=auto;html=1;endArrow=none;startFill=0;" edge="1" parent="Rgu-pnZhENHffydv-r2O-324">
          <mxGeometry relative="1" as="geometry">
            <mxPoint x="7.142857142857137" y="60" as="targetPoint" />
            <mxPoint x="7.142857142857137" y="13.222996515679442" as="sourcePoint" />
          </mxGeometry>
        </mxCell>
        <mxCell id="Rgu-pnZhENHffydv-r2O-327" value="" style="group" vertex="1" connectable="0" parent="1">
          <mxGeometry x="-1992.1457142857143" y="-1580.31" width="14.285714285714295" height="60" as="geometry" />
        </mxCell>
        <mxCell id="Rgu-pnZhENHffydv-r2O-328" value="" style="ellipse;whiteSpace=wrap;html=1;aspect=fixed;" vertex="1" parent="Rgu-pnZhENHffydv-r2O-327">
          <mxGeometry width="13.066202090592336" height="13.066202090592336" as="geometry" />
        </mxCell>
        <mxCell id="Rgu-pnZhENHffydv-r2O-329" style="edgeStyle=orthogonalEdgeStyle;rounded=0;orthogonalLoop=1;jettySize=auto;html=1;endArrow=none;startFill=0;" edge="1" parent="Rgu-pnZhENHffydv-r2O-327">
          <mxGeometry relative="1" as="geometry">
            <mxPoint x="7.142857142857137" y="60" as="targetPoint" />
            <mxPoint x="7.142857142857137" y="13.222996515679442" as="sourcePoint" />
          </mxGeometry>
        </mxCell>
        <mxCell id="Rgu-pnZhENHffydv-r2O-330" value="" style="group" vertex="1" connectable="0" parent="1">
          <mxGeometry x="-1974.2857142857144" y="-1580.31" width="14.285714285714295" height="60" as="geometry" />
        </mxCell>
        <mxCell id="Rgu-pnZhENHffydv-r2O-331" value="" style="ellipse;whiteSpace=wrap;html=1;aspect=fixed;" vertex="1" parent="Rgu-pnZhENHffydv-r2O-330">
          <mxGeometry width="13.066202090592336" height="13.066202090592336" as="geometry" />
        </mxCell>
        <mxCell id="Rgu-pnZhENHffydv-r2O-332" style="edgeStyle=orthogonalEdgeStyle;rounded=0;orthogonalLoop=1;jettySize=auto;html=1;endArrow=none;startFill=0;" edge="1" parent="Rgu-pnZhENHffydv-r2O-330">
          <mxGeometry relative="1" as="geometry">
            <mxPoint x="7.142857142857137" y="60" as="targetPoint" />
            <mxPoint x="7.142857142857137" y="13.222996515679442" as="sourcePoint" />
          </mxGeometry>
        </mxCell>
        <mxCell id="Rgu-pnZhENHffydv-r2O-333" value="" style="group" vertex="1" connectable="0" parent="1">
          <mxGeometry x="-1957.1457142857143" y="-1580.31" width="14.285714285714295" height="60" as="geometry" />
        </mxCell>
        <mxCell id="Rgu-pnZhENHffydv-r2O-334" value="" style="ellipse;whiteSpace=wrap;html=1;aspect=fixed;" vertex="1" parent="Rgu-pnZhENHffydv-r2O-333">
          <mxGeometry width="13.066202090592336" height="13.066202090592336" as="geometry" />
        </mxCell>
        <mxCell id="Rgu-pnZhENHffydv-r2O-335" style="edgeStyle=orthogonalEdgeStyle;rounded=0;orthogonalLoop=1;jettySize=auto;html=1;endArrow=none;startFill=0;" edge="1" parent="Rgu-pnZhENHffydv-r2O-333">
          <mxGeometry relative="1" as="geometry">
            <mxPoint x="7.142857142857137" y="60" as="targetPoint" />
            <mxPoint x="7.142857142857137" y="13.222996515679442" as="sourcePoint" />
          </mxGeometry>
        </mxCell>
        <mxCell id="Rgu-pnZhENHffydv-r2O-336" value="" style="group" vertex="1" connectable="0" parent="1">
          <mxGeometry x="-1939.9957142857143" y="-1580.31" width="14.285714285714295" height="60" as="geometry" />
        </mxCell>
        <mxCell id="Rgu-pnZhENHffydv-r2O-337" value="" style="ellipse;whiteSpace=wrap;html=1;aspect=fixed;" vertex="1" parent="Rgu-pnZhENHffydv-r2O-336">
          <mxGeometry width="13.066202090592336" height="13.066202090592336" as="geometry" />
        </mxCell>
        <mxCell id="Rgu-pnZhENHffydv-r2O-338" style="edgeStyle=orthogonalEdgeStyle;rounded=0;orthogonalLoop=1;jettySize=auto;html=1;endArrow=none;startFill=0;" edge="1" parent="Rgu-pnZhENHffydv-r2O-336">
          <mxGeometry relative="1" as="geometry">
            <mxPoint x="7.142857142857137" y="60" as="targetPoint" />
            <mxPoint x="7.142857142857137" y="13.222996515679442" as="sourcePoint" />
          </mxGeometry>
        </mxCell>
        <mxCell id="Rgu-pnZhENHffydv-r2O-339" value="" style="group" vertex="1" connectable="0" parent="1">
          <mxGeometry x="-1923.9957142857143" y="-1580.31" width="14.285714285714295" height="60" as="geometry" />
        </mxCell>
        <mxCell id="Rgu-pnZhENHffydv-r2O-340" value="" style="ellipse;whiteSpace=wrap;html=1;aspect=fixed;" vertex="1" parent="Rgu-pnZhENHffydv-r2O-339">
          <mxGeometry width="13.066202090592336" height="13.066202090592336" as="geometry" />
        </mxCell>
        <mxCell id="Rgu-pnZhENHffydv-r2O-341" style="edgeStyle=orthogonalEdgeStyle;rounded=0;orthogonalLoop=1;jettySize=auto;html=1;endArrow=none;startFill=0;" edge="1" parent="Rgu-pnZhENHffydv-r2O-339">
          <mxGeometry relative="1" as="geometry">
            <mxPoint x="7.142857142857137" y="60" as="targetPoint" />
            <mxPoint x="7.142857142857137" y="13.222996515679442" as="sourcePoint" />
          </mxGeometry>
        </mxCell>
        <mxCell id="Rgu-pnZhENHffydv-r2O-345" value="DNI" style="text;html=1;align=center;verticalAlign=middle;whiteSpace=wrap;rounded=0;rotation=-50;" vertex="1" parent="1">
          <mxGeometry x="-2017" y="-1607.31" width="40" height="10" as="geometry" />
        </mxCell>
        <mxCell id="Rgu-pnZhENHffydv-r2O-346" value="posicion" style="text;html=1;align=center;verticalAlign=middle;whiteSpace=wrap;rounded=0;rotation=-50;" vertex="1" parent="1">
          <mxGeometry x="-1989.15" y="-1607.31" width="40" height="10" as="geometry" />
        </mxCell>
        <mxCell id="Rgu-pnZhENHffydv-r2O-347" value="division" style="text;html=1;align=center;verticalAlign=middle;whiteSpace=wrap;rounded=0;rotation=-50;" vertex="1" parent="1">
          <mxGeometry x="-1971.2900000000002" y="-1607.31" width="40" height="10" as="geometry" />
        </mxCell>
        <mxCell id="Rgu-pnZhENHffydv-r2O-348" value="nacimiento" style="text;html=1;align=center;verticalAlign=middle;whiteSpace=wrap;rounded=0;rotation=-50;" vertex="1" parent="1">
          <mxGeometry x="-1957.13" y="-1613.6999999999998" width="56.68" height="10" as="geometry" />
        </mxCell>
        <mxCell id="Rgu-pnZhENHffydv-r2O-349" value="alergias_enfermedades(0,n)" style="text;html=1;align=center;verticalAlign=middle;whiteSpace=wrap;rounded=0;rotation=-50;" vertex="1" parent="1">
          <mxGeometry x="-1963.45" y="-1650.06" width="166.06" height="10" as="geometry" />
        </mxCell>
        <mxCell id="Rgu-pnZhENHffydv-r2O-350" value="direccion" style="text;html=1;align=center;verticalAlign=middle;whiteSpace=wrap;rounded=0;rotation=-50;" vertex="1" parent="1">
          <mxGeometry x="-1922.96" y="-1611.52" width="51" height="10" as="geometry" />
        </mxCell>
        <mxCell id="Rgu-pnZhENHffydv-r2O-352" value="" style="group" vertex="1" connectable="0" parent="1">
          <mxGeometry x="-1590" y="-1770.31" width="14.285714285714295" height="60" as="geometry" />
        </mxCell>
        <mxCell id="Rgu-pnZhENHffydv-r2O-353" value="" style="ellipse;whiteSpace=wrap;html=1;aspect=fixed;fillColor=light-dark(#FFFFFF,#FFFFFF);" vertex="1" parent="Rgu-pnZhENHffydv-r2O-352">
          <mxGeometry width="13.066202090592336" height="13.066202090592336" as="geometry" />
        </mxCell>
        <mxCell id="Rgu-pnZhENHffydv-r2O-354" style="edgeStyle=orthogonalEdgeStyle;rounded=0;orthogonalLoop=1;jettySize=auto;html=1;endArrow=none;startFill=0;" edge="1" parent="Rgu-pnZhENHffydv-r2O-352">
          <mxGeometry relative="1" as="geometry">
            <mxPoint x="7.142857142857137" y="60" as="targetPoint" />
            <mxPoint x="7.142857142857137" y="13.222996515679442" as="sourcePoint" />
          </mxGeometry>
        </mxCell>
        <mxCell id="Rgu-pnZhENHffydv-r2O-355" value="" style="group" vertex="1" connectable="0" parent="1">
          <mxGeometry x="-1562.1457142857143" y="-1770.31" width="14.285714285714295" height="60" as="geometry" />
        </mxCell>
        <mxCell id="Rgu-pnZhENHffydv-r2O-356" value="" style="ellipse;whiteSpace=wrap;html=1;aspect=fixed;" vertex="1" parent="Rgu-pnZhENHffydv-r2O-355">
          <mxGeometry width="13.066202090592336" height="13.066202090592336" as="geometry" />
        </mxCell>
        <mxCell id="Rgu-pnZhENHffydv-r2O-357" style="edgeStyle=orthogonalEdgeStyle;rounded=0;orthogonalLoop=1;jettySize=auto;html=1;endArrow=none;startFill=0;" edge="1" parent="Rgu-pnZhENHffydv-r2O-355">
          <mxGeometry relative="1" as="geometry">
            <mxPoint x="7.142857142857137" y="60" as="targetPoint" />
            <mxPoint x="7.142857142857137" y="13.222996515679442" as="sourcePoint" />
          </mxGeometry>
        </mxCell>
        <mxCell id="Rgu-pnZhENHffydv-r2O-358" value="" style="group" vertex="1" connectable="0" parent="1">
          <mxGeometry x="-1544.2857142857144" y="-1770.31" width="14.285714285714295" height="60" as="geometry" />
        </mxCell>
        <mxCell id="Rgu-pnZhENHffydv-r2O-359" value="" style="ellipse;whiteSpace=wrap;html=1;aspect=fixed;" vertex="1" parent="Rgu-pnZhENHffydv-r2O-358">
          <mxGeometry width="13.066202090592336" height="13.066202090592336" as="geometry" />
        </mxCell>
        <mxCell id="Rgu-pnZhENHffydv-r2O-360" style="edgeStyle=orthogonalEdgeStyle;rounded=0;orthogonalLoop=1;jettySize=auto;html=1;endArrow=none;startFill=0;" edge="1" parent="Rgu-pnZhENHffydv-r2O-358">
          <mxGeometry relative="1" as="geometry">
            <mxPoint x="7.142857142857137" y="60" as="targetPoint" />
            <mxPoint x="7.142857142857137" y="13.222996515679442" as="sourcePoint" />
          </mxGeometry>
        </mxCell>
        <mxCell id="Rgu-pnZhENHffydv-r2O-361" value="" style="group" vertex="1" connectable="0" parent="1">
          <mxGeometry x="-1527.1457142857143" y="-1770.31" width="14.285714285714295" height="60" as="geometry" />
        </mxCell>
        <mxCell id="Rgu-pnZhENHffydv-r2O-362" value="" style="ellipse;whiteSpace=wrap;html=1;aspect=fixed;" vertex="1" parent="Rgu-pnZhENHffydv-r2O-361">
          <mxGeometry width="13.066202090592336" height="13.066202090592336" as="geometry" />
        </mxCell>
        <mxCell id="Rgu-pnZhENHffydv-r2O-363" style="edgeStyle=orthogonalEdgeStyle;rounded=0;orthogonalLoop=1;jettySize=auto;html=1;endArrow=none;startFill=0;" edge="1" parent="Rgu-pnZhENHffydv-r2O-361">
          <mxGeometry relative="1" as="geometry">
            <mxPoint x="7.142857142857137" y="60" as="targetPoint" />
            <mxPoint x="7.142857142857137" y="13.222996515679442" as="sourcePoint" />
          </mxGeometry>
        </mxCell>
        <mxCell id="Rgu-pnZhENHffydv-r2O-364" value="" style="group" vertex="1" connectable="0" parent="1">
          <mxGeometry x="-1509.9957142857143" y="-1770.31" width="14.285714285714295" height="60" as="geometry" />
        </mxCell>
        <mxCell id="Rgu-pnZhENHffydv-r2O-365" value="" style="ellipse;whiteSpace=wrap;html=1;aspect=fixed;" vertex="1" parent="Rgu-pnZhENHffydv-r2O-364">
          <mxGeometry width="13.066202090592336" height="13.066202090592336" as="geometry" />
        </mxCell>
        <mxCell id="Rgu-pnZhENHffydv-r2O-366" style="edgeStyle=orthogonalEdgeStyle;rounded=0;orthogonalLoop=1;jettySize=auto;html=1;endArrow=none;startFill=0;" edge="1" parent="Rgu-pnZhENHffydv-r2O-364">
          <mxGeometry relative="1" as="geometry">
            <mxPoint x="7.142857142857137" y="60" as="targetPoint" />
            <mxPoint x="7.142857142857137" y="13.222996515679442" as="sourcePoint" />
          </mxGeometry>
        </mxCell>
        <mxCell id="Rgu-pnZhENHffydv-r2O-373" value="Nombre" style="text;html=1;align=center;verticalAlign=middle;whiteSpace=wrap;rounded=0;rotation=-50;" vertex="1" parent="1">
          <mxGeometry x="-1587" y="-1797.31" width="40" height="10" as="geometry" />
        </mxCell>
        <mxCell id="Rgu-pnZhENHffydv-r2O-374" value="descripcion" style="text;html=1;align=center;verticalAlign=middle;whiteSpace=wrap;rounded=0;rotation=-50;" vertex="1" parent="1">
          <mxGeometry x="-1562.57" y="-1804.64" width="59.15" height="10" as="geometry" />
        </mxCell>
        <mxCell id="Rgu-pnZhENHffydv-r2O-375" value="apellido" style="text;html=1;align=center;verticalAlign=middle;whiteSpace=wrap;rounded=0;rotation=-50;" vertex="1" parent="1">
          <mxGeometry x="-1541.2900000000002" y="-1797.31" width="40" height="10" as="geometry" />
        </mxCell>
        <mxCell id="Rgu-pnZhENHffydv-r2O-376" value="inicio" style="text;html=1;align=center;verticalAlign=middle;whiteSpace=wrap;rounded=0;rotation=-50;" vertex="1" parent="1">
          <mxGeometry x="-1527.13" y="-1803.6999999999998" width="56.68" height="10" as="geometry" />
        </mxCell>
        <mxCell id="Rgu-pnZhENHffydv-r2O-377" value="fin(0,1)" style="text;html=1;align=center;verticalAlign=middle;whiteSpace=wrap;rounded=0;rotation=-50;" vertex="1" parent="1">
          <mxGeometry x="-1516.06" y="-1802.77" width="68.71" height="10" as="geometry" />
        </mxCell>
      </root>
    </mxGraphModel>
  </diagram>
</mxfile>
